<?xml version="1.0" encoding="utf-8"?>
<!-- Generator: Adobe Illustrator 23.0.3, SVG Export Plug-In . SVG Version: 6.00 Build 0)  -->
<svg version="1.1" id="Livello_1" xmlns="http://www.w3.org/2000/svg" xmlns:xlink="http://www.w3.org/1999/xlink" x="0px" y="0px"
	 viewBox="0 0 28.2 30" style="enable-background:new 0 0 28.2 30;" xml:space="preserve">
<style type="text/css">
	.st0{clip-path:url(#SVGID_2_);}
	.st1{fill:#FF7A59;}
</style>
<title>Logo - Full (Color)</title>
<g id="Layer_2">
	<g>
		<defs>
			<rect id="SVGID_1_" width="28.2" height="29.6"/>
		</defs>
		<clipPath id="SVGID_2_">
			<use xlink:href="#SVGID_1_"  style="overflow:visible;"/>
		</clipPath>
		<g class="st0">
			<path class="st1" d="M21.7,9.7V6.2c0.9-0.4,1.6-1.4,1.6-2.4V3.7C23.2,2.2,22,1,20.5,1h-0.1c-1.5,0-2.7,1.2-2.7,2.7v0.1
				c0,1,0.6,2,1.6,2.4v3.5c-1.3,0.2-2.6,0.8-3.7,1.6L6,3.8c0.1-0.2,0.1-0.5,0.1-0.8c0-1.7-1.4-3.1-3-3.1C1.4,0,0,1.4,0,3
				c0,1.7,1.4,3.1,3,3.1c0,0,0,0,0,0c0.5,0,1-0.1,1.5-0.4l9.5,7.4c-1.7,2.6-1.7,6.1,0.1,8.7l-2.9,2.9c-0.2-0.1-0.5-0.1-0.7-0.1
				c-1.4,0-2.5,1.1-2.5,2.5c0,1.4,1.1,2.5,2.5,2.5c1.4,0,2.5-1.1,2.5-2.5c0-0.2,0-0.5-0.1-0.7l2.9-2.9c3.4,2.6,8.2,2,10.8-1.4
				c2.6-3.4,2-8.2-1.4-10.8C24.2,10.5,23,9.9,21.7,9.7 M20.5,21.3c-2.2,0-4-1.8-4-4s1.8-4,4-4c2.2,0,4,1.8,4,4
				C24.5,19.5,22.7,21.3,20.5,21.3"/>
		</g>
	</g>
</g>
</svg>
